<svg width="4000" height="4000" fill="none" xmlns="http://www.w3.org/2000/svg"><mask id="a" style="mask-type:alpha" maskUnits="userSpaceOnUse" x="0" y="0" width="4000" height="4000"><circle cx="2000" cy="2000" r="2000" fill="#D9D9D9"/></mask><g mask="url(#a)"><circle cx="2000" cy="2000" r="1929.29" stroke="#fff" stroke-width="141.43"/><path d="M1999.39 3455.71c386.08 0 756.35-153.37 1029.35-426.37 273-272.99 426.37-643.26 426.37-1029.34 0-386.08-153.37-756.35-426.37-1029.346-273-272.999-643.27-426.369-1029.35-426.369v310.828c303.65 0 594.85 120.622 809.56 335.327 214.71 214.71 335.33 505.92 335.33 809.56 0 303.64-120.62 594.85-335.33 809.56-214.71 214.7-505.91 335.33-809.56 335.33v310.82z" fill="#fff"/><mask id="b" fill="#fff"><path d="M1999.39 544.285c-191.16 0-380.46 37.653-557.07 110.81a1455.63 1455.63 0 0 0-472.272 315.559 1455.786 1455.786 0 0 0-315.559 472.266 1455.74 1455.74 0 0 0 0 1114.16 1455.683 1455.683 0 0 0 315.56 472.26 1455.46 1455.46 0 0 0 472.271 315.56 1455.617 1455.617 0 0 0 557.07 110.81V544.285z"/></mask><path d="M1999.39 544.285c-191.16 0-380.46 37.653-557.07 110.81a1455.63 1455.63 0 0 0-472.272 315.559 1455.786 1455.786 0 0 0-315.559 472.266 1455.74 1455.74 0 0 0 0 1114.16 1455.683 1455.683 0 0 0 315.56 472.26 1455.46 1455.46 0 0 0 472.271 315.56 1455.617 1455.617 0 0 0 557.07 110.81V544.285z" stroke="#fff" stroke-width="116" mask="url(#b)"/><mask id="c" style="mask-type:alpha" maskUnits="userSpaceOnUse" x="601" y="601" width="2798" height="2798"><circle cx="2000.41" cy="2000" r="1398.07" fill="#000" stroke="#000"/></mask><g mask="url(#c)" fill="#fff"><path d="M1999.99 3101.57c-105.6 0-210.66-15.19-311.94-45.1v-839.76l311.94-216.57v1101.43z"/><path d="M910.1 2159.14a1101.476 1101.476 0 0 0 153.33 420.66 1101.424 1101.424 0 0 0 308.09 324.87v-688.24h316.77l311.7-216.29-312.14-45.93V2159l-777.75.14z"/><path d="M998.453 1541.81A1101.413 1101.413 0 0 0 910 1841.83l777.84.02v112.36l312.15 45.93-312.16-458.33H998.453z"/><path d="M1999.77 899a1101.45 1101.45 0 0 0-312.27 45.193l.06 37.522 312.21 1018.715V899z"/><path d="M1580.58 981.887h-118.02V1224.71h225.29v317.15l311.92 458.57-311.92-1018.543h-107.27zM833 982h344v243H833z"/><path d="M1688.55 544.285h314.286v2911.43H1688.55z"/><path d="M544.699 1541.43h1158.57v57.143H544.699zM544.693 2401.43h650v57.143h-650zM1053.26 2158.57h650v57.143h-650zM1507.84 3189.29c-184.84 70-450-135-547.287-252.86C1126.98 3235.71 1545.2 3372 1698.91 3405.71L1688.56 2930s4.12 189.29-180.72 259.29z"/></g><path d="m366.096 1912.33 7.779-63.76c5.991.09 11.484-.74 16.481-2.49 4.987-1.66 9.433-4.2 13.336-7.61 3.894-3.34 7.082-7.53 9.563-12.58 2.481-5.05 4.126-10.89 4.935-17.52 1.404-11.51-.234-21.68-4.912-30.52-4.599-8.84-11.948-16.06-22.048-21.67-10.031-5.52-22.516-9.19-37.458-11.01-15.66-1.92-29.027-1.36-40.1 1.67-11.083 3.11-19.793 8.37-26.131 15.79-6.268 7.5-10.084 16.85-11.449 28.04-.77 6.31-.668 12.12.306 17.43.964 5.39 2.77 10.19 5.419 14.4 2.648 4.22 6.018 7.83 10.11 10.85 4.163 3.1 8.987 5.43 14.473 6.99l-8.259 63.7c-10.43-2.24-20.686-6.58-30.769-13-10.003-6.41-18.878-14.75-26.626-25.02-7.748-10.27-13.484-22.4-17.209-36.4-3.656-13.9-4.42-29.57-2.295-46.98 2.729-22.38 10.01-41.84 21.842-58.4 11.902-16.47 27.871-28.71 47.905-36.73 20.104-7.92 43.659-10.24 70.665-6.94 27.166 3.31 49.464 11.3 66.893 23.97 17.499 12.76 30.001 28.6 37.505 47.51 7.583 18.93 10.035 39.38 7.354 61.35-1.852 15.18-5.636 28.91-11.35 41.19-5.725 12.36-13.172 22.88-22.341 31.57-9.18 8.78-19.967 15.45-32.364 20.02-12.317 4.58-26.068 6.63-41.255 6.15zm-157.495 36.17 247.135-8.26 2.117 63.35-97.864 3.27 3.109 93.04 97.864-3.27 2.122 63.47-247.135 8.26-2.121-63.47 97.985-3.28-3.109-93.04-97.986 3.28-2.117-63.35zm24.716 335.06-12.989-67.1 258.439 33.96 16.294 84.17-227.068 128.08-12.989-67.1 168.083-89.72-.367-1.9-189.403-20.39zm93.572-29.31 25.702 132.76-46.94 9.09-25.703-132.76 46.941-9.09zm-46.551 252.85 233.741-80.68 20.682 59.92-185.235 63.94 33.092 95.87-48.506 16.74-53.774-155.79zm293.085 87.57 36.914 69.53-101.268 121.84 1.358 2.56 157.658-15.63 36.914 69.53-218.403 115.95-28.987-54.6 130.21-69.13-.963-1.81-155.552 17.79-18.004-33.91 102.627-119.28-.963-1.82-130.956 69.53-28.987-54.6 218.402-115.95zm-55.879 412.8 197.147-149.25L820.51 2998l-40.912 30.97-67.558-89.24-37.158 28.13 62.092 82.02-40.912 30.97-62.092-82.01-37.254 28.2 67.412 89.04-40.912 30.98-105.672-139.59zm142.06 182.04 175.686-174 73.409 74.12c13.028 13.15 21.954 26.91 26.78 41.28 4.826 14.36 5.441 28.59 1.844 42.69-3.539 14.04-11.428 27.13-23.667 39.25-12.353 12.23-25.509 19.88-39.469 22.94-13.959 3.07-28.097 1.83-42.414-3.7-14.202-5.53-27.931-14.99-41.185-28.37l-45.116-45.55 35.343-35.01 36.449 36.8c5.948 6.01 11.704 10.33 17.269 12.98 5.679 2.64 11.225 3.44 16.637 2.38 5.526-1.05 10.892-4.16 16.096-9.31 5.204-5.16 8.389-10.52 9.554-16.09 1.279-5.57.651-11.24-1.882-17-2.42-5.76-6.603-11.64-12.551-17.65l-18.692-18.87-139.485 138.15-44.606-45.04zm180.383 21.19-37.049 123.53-48.6-49.07 37.984-122.58 47.665 48.12zm205.903 96.43c4.57-7.15 5.96-14.39 4.18-21.74-1.72-7.29-7.05-14.36-15.99-21.21-5.82-4.45-11.21-7.41-16.17-8.88-4.9-1.42-9.22-1.59-12.99-.51-3.76 1.07-6.918 3.21-9.478 6.42-2.07 2.57-3.369 5.33-3.897 8.27-.415 2.93-.052 6.09 1.089 9.5 1.142 3.41 2.949 7.07 5.422 10.99 2.584 3.91 5.784 8.08 9.584 12.51l13.7 16.27c8.58 10.11 15.27 19.9 20.09 29.37 4.87 9.4 7.88 18.5 9.05 27.31 1.23 8.85.64 17.36-1.77 25.55-2.35 8.24-6.43 16.21-12.24 23.93-9.75 12.61-21.22 20.96-34.4 25.07-13.06 4.09-27.283 3.99-42.664-.28-15.268-4.29-31.146-12.75-47.636-25.37-16.745-12.82-29.441-26.49-38.087-41.02-8.583-14.48-12.387-29.5-11.411-45.08.975-15.57 7.466-31.33 19.473-47.28l48.03 36.77c-4.377 6.38-6.743 12.78-7.096 19.2-.305 6.36 1.26 12.52 4.695 18.5 3.434 5.97 8.603 11.6 15.505 16.89 6.008 4.59 11.676 7.72 17.005 9.36 5.393 1.7 10.227 2.01 14.504.92 4.39-1.1 8.012-3.45 10.865-7.04 2.48-3.37 3.595-7.08 3.346-11.12-.137-4.06-1.733-8.73-4.788-14.01-2.942-5.29-7.388-11.53-13.338-18.73l-16.661-19.75c-14.256-16.99-22.986-33.66-26.189-50-3.091-16.36 1.163-32.11 12.759-47.26 9.444-12.33 21.012-20.56 34.705-24.67 13.742-4.18 28.473-4.35 44.193-.53 15.79 3.88 31.32 11.66 46.6 23.36 15.53 11.89 26.98 24.81 34.34 38.76 7.41 13.88 10.63 27.95 9.65 42.21-.98 14.25-6.23 27.67-15.75 40.24l-48.23-36.92zm137.65 65.42 23.23-45.75 189.06 95.95-23.23 45.76-66.64-33.83-88.69 174.74-55.77-28.3 88.69-174.74-66.65-33.83zm144.41 289.13 81.02-233.62 165.63 57.44-16.81 48.48-105.74-36.67-15.27 44.03 97.19 33.71-16.82 48.48-97.19-33.71-15.31 44.15 105.52 36.59-16.81 48.48-165.41-57.36zm219.98 72.5 47.99-242.58 62.19 12.31-19.85 100.32 3.2.63 96.48-85.16 72.84 14.41-105.25 91.55 59.03 151.38-74.38-14.72-39.02-104.46-28.35 24.42-12.7 64.2-62.18-12.3zm481.92-189.82-11.73 247-53.31-2.53-87.24-140.62-1.56-.07-6.47 136.16-63.32-3.01 11.73-246.99 54.03 2.56 86.18 140.2 1.93.09 6.45-135.79 63.31 3zm88.68-3.53 14.04 246.87-63.28 3.6-14.05-246.87 63.29-3.6zm169.69 51.5c-2.02-8.24-6.31-14.25-12.85-18.03-6.46-3.79-15.26-4.81-26.39-3.07-7.23 1.14-13.09 3-17.58 5.57-4.4 2.57-7.52 5.58-9.33 9.05-1.82 3.46-2.45 7.23-1.9 11.29.43 3.28 1.53 6.12 3.3 8.53 1.83 2.32 4.37 4.24 7.62 5.77 3.26 1.53 7.16 2.75 11.7 3.66 4.61.83 9.83 1.39 15.67 1.7l21.22 1.31c13.24.78 24.95 2.69 35.12 5.74 10.16 2.96 18.83 7.06 26.01 12.29 7.25 5.22 13.01 11.52 17.27 18.92 4.33 7.39 7.29 15.85 8.87 25.38 2.39 15.75.52 29.82-5.6 42.18-6.06 12.28-15.94 22.51-29.65 30.69-13.64 8.09-30.72 13.74-51.24 16.96-20.83 3.27-39.49 3.02-55.97-.75-16.4-3.78-29.9-11.4-40.49-22.85-10.6-11.46-17.53-27.03-20.78-46.73l59.76-9.38c1.59 7.58 4.59 13.71 9 18.39 4.38 4.61 9.93 7.73 16.62 9.37 6.69 1.64 14.33 1.78 22.92.44 7.48-1.18 13.65-3.12 18.52-5.84 4.95-2.74 8.51-6.02 10.67-9.87 2.24-3.93 3.04-8.17 2.41-12.72-.73-4.12-2.65-7.49-5.74-10.1-3.04-2.7-7.52-4.77-13.44-6.2-5.86-1.52-13.45-2.61-22.76-3.27l-25.79-1.58c-22.14-1.41-40.23-6.6-54.26-15.56-13.97-9.05-22.43-23-25.39-41.84-2.41-15.35-.38-29.4 6.09-42.15 6.47-12.82 16.51-23.61 30.13-32.34 13.7-8.75 30.05-14.62 49.05-17.6 19.33-3.04 36.58-2.4 51.76 1.9 15.16 4.22 27.56 11.6 37.2 22.14 9.64 10.55 15.73 23.61 18.25 39.18l-60 9.42zm137.92 148.25-72.71-236.35 60.59-18.63 30.07 97.74 3.12-.96 44.59-120.71 70.97-21.84-49.29 130.5 123.73 105.31-72.47 22.3-83.87-73.49-13.38 34.94 19.24 62.55-60.59 18.64zm303.38-107.2-61.43 29.94-34.23-258.41 77.06-37.56 182.59 186.09-61.43 29.94-130.25-139.06-1.74.84 29.43 188.22zm-52.57-82.77 121.55-59.26 20.95 42.98-121.55 59.25-20.95-42.97zm324.97-65.32-150.94-195.86 50.21-38.69 59.77 77.56 73.73-56.82-59.77-77.56 50.31-38.77 150.94 195.86-50.31 38.77-59.84-77.66-73.74 56.82 59.85 77.66-50.21 38.69zm289.51-429.74c19.92 18.77 33.11 38.51 39.59 59.21 6.47 20.6 7.1 40.82 1.88 60.68-5.22 19.74-15.48 37.72-30.77 53.95-15.35 16.28-32.78 27.62-52.29 34-19.46 6.33-39.69 6.84-60.69 1.54-20.99-5.3-41.39-17.28-61.19-35.94-19.92-18.77-33.11-38.45-39.59-59.04-6.53-20.65-7.18-40.85-1.96-60.59 5.22-19.85 15.5-37.92 30.85-54.21 15.3-16.22 32.67-27.5 52.13-33.83 19.45-6.44 39.68-7.01 60.68-1.71 20.99 5.19 41.44 17.17 61.36 35.94zm-44.64 47.36c-11.24-10.6-22.19-17.99-32.85-22.18-10.66-4.29-20.75-5.39-30.25-3.29-9.5 2.11-18.2 7.35-26.1 15.72-7.89 8.38-12.61 17.37-14.15 26.98-1.53 9.62.13 19.65 4.99 30.09 4.86 10.34 12.92 20.8 24.16 31.4 11.25 10.6 22.21 18.05 32.87 22.35 10.65 4.18 20.74 5.22 30.24 3.12 9.5-2.11 18.2-7.35 26.1-15.72 7.89-8.38 12.61-17.37 14.15-26.98 1.53-9.62-.13-19.59-4.99-29.92-4.86-10.45-12.92-20.97-24.17-31.57zm122.84-233.22c-4.47-1.57-8.88-2.32-13.21-2.24-4.35-.03-8.58.76-12.67 2.36-4.17 1.55-8.11 3.94-11.84 7.15-3.68 3.14-7.08 7.01-10.2 11.61-6.49 9.6-9.76 19.45-9.78 29.54-.1 10.04 3.01 19.88 9.33 29.5 6.32 9.62 15.68 18.63 28.07 27.02 12.6 8.53 24.56 14.05 35.88 16.56 11.26 2.47 21.56 1.91 30.89-1.69 9.32-3.7 17.33-10.52 24.06-20.45 5.95-8.8 9.61-17.07 10.96-24.81 1.32-7.85.5-14.96-2.46-21.35-3.04-6.43-7.92-11.92-14.66-16.48l7.37-8.72-32.63 48.19-37.79-25.58 60.58-89.49 27.79 18.82c18.47 12.5 31.63 27.15 39.51 43.95 7.85 16.69 10.63 34.27 8.33 52.73-2.25 18.41-9.38 36.47-21.38 54.2-13.36 19.73-29.32 34.2-47.89 43.4-18.58 9.2-38.54 12.7-59.89 10.49-21.3-2.27-42.75-10.72-64.35-25.34-16.86-11.41-30.11-24.08-39.75-37.99-9.59-13.97-15.81-28.54-18.68-43.7-2.92-15.2-2.68-30.34.73-45.43 3.46-15.16 9.83-29.6 19.13-43.33 8.12-12 17.38-22.02 27.77-30.05 10.39-8.03 21.41-13.89 33.04-17.58 11.68-3.76 23.49-5.19 35.43-4.3 11.87.84 23.29 4.15 34.25 9.92l-35.94 53.09zm105.64-204.56c-7.94-2.99-15.32-2.87-22.14.38-6.78 3.17-12.61 9.84-17.48 20.01-3.17 6.6-4.96 12.48-5.37 17.64-.38 5.08.34 9.35 2.16 12.81 1.82 3.47 4.57 6.12 8.23 7.97 2.94 1.49 5.91 2.2 8.9 2.11 2.94-.19 5.97-1.2 9.07-3.01 3.1-1.82 6.32-4.34 9.65-7.56 3.29-3.34 6.71-7.32 10.27-11.95l13.11-16.75c8.14-10.47 16.35-19.03 24.63-25.69 8.2-6.69 16.49-11.51 24.86-14.46 8.41-3.02 16.87-4.19 25.38-3.51 8.54.62 17.19 2.97 25.93 7.07 14.34 6.96 24.87 16.47 31.59 28.52 6.68 11.95 9.51 25.89 8.48 41.82-1.06 15.82-6.08 33.1-15.05 51.83-9.11 19.02-19.89 34.25-32.33 45.69-12.41 11.37-26.34 18.18-41.78 20.42-15.44 2.24-32.2-.88-50.27-9.36l26.13-54.55c7.14 2.97 13.89 3.98 20.25 3.01 6.28-1.01 11.99-3.81 17.14-8.4 5.14-4.58 9.59-10.8 13.35-18.64 3.26-6.82 5.16-13.01 5.68-18.56.55-5.63-.14-10.42-2.08-14.39-1.98-4.07-5.02-7.13-9.12-9.18-3.81-1.74-7.67-2.07-11.58-1-3.94.97-8.18 3.49-12.72 7.56-4.58 3.97-9.78 9.6-15.59 16.9l-15.91 20.36c-13.71 17.44-28.24 29.4-43.57 35.89-15.38 6.38-31.66 5.45-48.87-2.79-14.01-6.71-24.43-16.35-31.27-28.9-6.91-12.6-10.1-26.98-9.59-43.15.56-16.25 4.99-33.05 13.3-50.4 8.45-17.64 18.75-31.49 30.89-41.56 12.07-10.11 25.18-16.14 39.33-18.11 14.16-1.97 28.36.42 42.63 7.16l-26.24 54.77zm200.21-29.09-235.61-75.05 19.23-60.4 97.45 31.04.99-3.11-73.74-105.47 22.54-70.75 79.09 114.91 157.07-41.59-23.01 72.25-108.2 26.99 21.07 30.92 62.35 19.86-19.23 60.4zm-13.78-490.41c27.03 4.28 49.06 13.14 66.09 26.59 16.95 13.35 28.88 29.7 35.76 49.04 6.82 19.25 8.49 39.89 5 61.91-3.49 22.11-11.49 41.29-24.01 57.57-12.5 16.2-28.92 28.03-49.25 35.49-20.33 7.46-43.93 9.07-70.8 4.82-27.03-4.27-49.03-13.09-65.99-26.45-17.03-13.36-28.96-29.67-35.78-48.92-6.88-19.35-8.58-40.07-5.08-62.17 3.48-22.02 11.47-41.13 23.97-57.33 12.44-16.29 28.82-28.16 49.15-35.63 20.26-7.55 43.91-9.19 70.94-4.92zm-10.16 64.28c-15.26-2.41-28.48-2.34-39.64.22-11.23 2.46-20.17 7.24-26.83 14.33-6.67 7.1-10.9 16.33-12.69 27.7-1.8 11.37-.63 21.46 3.52 30.26 4.15 8.81 11.18 16.15 21.09 22.04 9.84 5.79 22.39 9.9 37.66 12.31 15.26 2.41 28.51 2.39 39.74-.08 11.16-2.55 20.07-7.38 26.73-14.47 6.67-7.1 10.9-16.33 12.7-27.7 1.79-11.37.62-21.46-3.53-30.26-4.15-8.81-11.15-16.11-20.99-21.9-9.91-5.88-22.49-10.03-37.76-12.45zm137.06-98.63-247.25-3.95 1.02-63.38 195.93 3.13 1.62-101.41 51.31.82-2.63 164.79zm-7.26-274.67 8.31 67.83-255.47-51.78-10.42-85.09 235.4-112.04 8.31 67.83-173.9 77.86.23 1.92 187.54 33.47zm-95.38 22.75-16.44-134.22 47.46-5.81 16.44 134.22-47.46 5.81zM1136.19 730.96l-77.28 52.121L920.644 578.08l76.876-51.851c20.95-14.133 41.81-22.227 62.56-24.281 20.77-2.166 40.47 1.635 59.1 11.402 18.65 9.656 35.17 25.16 49.57 46.515 14.41 21.354 22.65 42.496 24.73 63.425 2.03 20.863-1.8 40.53-11.47 59-9.73 18.403-25 34.627-45.82 48.67zm-54.9-28.068 22.72-15.326c10.88-7.336 18.87-15.349 23.98-24.039 5.18-8.735 6.9-18.634 5.16-29.698-1.73-11.064-7.48-23.836-17.25-38.317-9.81-14.547-19.55-24.675-29.23-30.383-9.67-5.707-19.57-7.719-29.7-6.035-10.11 1.573-20.76 6.14-31.97 13.702l-21.63 14.583 77.92 115.513zm213.38-67.205-61.54 29.711-33.25-258.533 77.2-37.27 181.88 186.774-61.54 29.711-129.72-139.556-1.74.84 28.71 188.323zm-52.26-82.969 121.78-58.792 20.79 43.057-121.78 58.792-20.79-43.057zm131.97-170.924-15.93-48.779 201.54-65.82 15.93 48.779-71.05 23.202 60.84 186.277-59.45 19.416-60.84-186.277-71.04 23.202zm304.59 116.226-67.21 12.329 36.5-258.093 84.32-15.465 125.84 228.317-67.22 12.329-88.07-168.958-1.9.348-22.26 189.193zm-28.38-93.855 133.01-24.395 8.62 47.028-133 24.395-8.63-47.028zm173.15-129.756-2.02-51.275 211.86-8.321 2.01 51.274-74.68 2.934 7.69 195.808-62.49 2.454-7.69-195.808-74.68 2.934zm233.96 188.135 23.34-246.169 174.53 16.548-4.84 51.085-111.43-10.565-4.39 46.397 102.41 9.71-4.85 51.085-102.41-9.71-4.41 46.517 111.19 10.542-4.85 51.085-174.29-16.525zm196.47 19.85 57.08-240.596 61.68 14.632-23.61 99.504 3.17.752 99.62-81.473 72.25 17.14-108.62 87.526 53.3 153.487-73.77-17.501-35.08-105.855-29.23 23.342-15.11 63.673-61.68-14.631zm508.61-96.814-92.37 229.369-49.51-19.937-36.09-161.491-1.46-.587-50.92 126.445-58.8-23.681 92.38-229.369 50.17 20.207 35.22 160.75 1.8.721 50.79-126.108 58.79 23.681zm102.65 51.352L2749.19 655.18l-55.95-29.798 116.24-218.248 55.95 29.798zm-94.06 231.345 138.07-205.132 52.59 35.395-57.11 84.837 2.71 1.82 121.91-41.216 61.6 41.462-132.47 43.716-4.11 162.428-62.9-42.34 4.41-111.425-35.58 11.562-36.54 54.288-52.58-35.395zM644.618 965.642l7.754 116.508 113.202 28.63-108.41 43.38 7.755 116.5-74.755-89.7-108.41 43.38 62.208-98.81-74.755-89.7 113.202 28.63 62.209-98.818zM3355.41 965.403l-7.75 116.507-113.2 28.63 108.41 43.38-7.76 116.51 74.76-89.7 108.41 43.37-62.21-98.81 74.75-89.7-113.2 28.63-62.21-98.817z" fill="#fff"/><circle cx="3066" cy="3059" r="28" fill="#fff"/><circle cx="3117" cy="3003" r="28" fill="#fff"/></g></svg>